<svg aria-hidden="true" style="position: absolute; width: 0; height: 0; overflow: hidden;" version="1.1" xmlns="http://www.w3.org/2000/svg" xmlns:xlink="http://www.w3.org/1999/xlink">
<defs>
<symbol id="icon-group-1" viewBox="0 0 24 32">
<path d="M10.333 2.202h-0.082c-0.127-0.008-0.254-0.011-0.38-0.014v0h-0.275c-0.24 0-0.484 0.006-0.727 0.018-0.018-0.001-0.037-0.001-0.055 0-2.2 0.125-4.356 0.675-6.349 1.62l-0.261 0.126v13.368l0.611-0.207c0.536-0.184 1.107-0.35 1.698-0.504 1.598-0.41 3.239-0.628 4.888-0.649v1.756c-0.218 0.002-0.431 0.008-0.643 0.018h-0.050c-1.269 0.070-2.528 0.263-3.76 0.577-1.56 0.391-3.065 0.977-4.48 1.746v-17.145c1.469-0.857 3.051-1.5 4.7-1.911 1.447-0.374 2.935-0.566 4.429-0.571h0.258c0.309 0.008 0.609 0.022 0.892 0.043 0.744 0.052 1.483 0.17 2.207 0.352v1.729c-0.703-0.164-1.418-0.272-2.138-0.322-0.015-0.001-0.029-0.002-0.044-0.004-0.149-0.013-0.298-0.025-0.437-0.025zM13.375 3.97c0.383 0.029 0.78 0.043 1.182 0.043 1.571-0.006 3.135-0.206 4.657-0.597 1.559-0.392 3.064-0.979 4.478-1.747v16.84c-1.47 0.856-3.053 1.5-4.701 1.912-1.448 0.372-2.935 0.564-4.429 0.57-1.132 0.009-2.261-0.124-3.36-0.396v-16.949c0.26 0.060 0.527 0.115 0.799 0.161 0.446 0.075 0.916 0.131 1.375 0.164zM21.945 4.1l-0.611 0.206c-0.562 0.189-1.129 0.358-1.698 0.508-1.659 0.426-3.363 0.645-5.075 0.651-0.399 0-0.765-0.011-1.12-0.034l-0.487-0.032v13.752l0.418 0.037c0.388 0.034 0.788 0.051 1.191 0.051 1.349-0.006 2.691-0.18 3.997-0.517 1.075-0.27 2.122-0.646 3.123-1.122l0.261-0.126v-13.373z"></path>
<path d="M1.653 25.917c-0.088-0.091-0.194-0.163-0.311-0.21s-0.243-0.069-0.369-0.065c-0.134-0.002-0.268 0.023-0.393 0.074-0.114 0.046-0.218 0.114-0.305 0.201s-0.153 0.192-0.197 0.307c-0.048 0.121-0.072 0.249-0.070 0.379v2.291c-0.005 0.161 0.025 0.322 0.090 0.47 0.054 0.117 0.132 0.222 0.229 0.307 0.092 0.077 0.199 0.133 0.315 0.163 0.111 0.031 0.226 0.047 0.342 0.048 0.128 0.001 0.254-0.026 0.37-0.080 0.115-0.050 0.218-0.122 0.305-0.212 0.085-0.089 0.153-0.193 0.2-0.307 0.049-0.116 0.074-0.24 0.073-0.365v-0.256h-0.599v0.204c0.002 0.070-0.010 0.139-0.035 0.204-0.020 0.049-0.049 0.093-0.087 0.129-0.037 0.030-0.080 0.052-0.125 0.066-0.040 0.013-0.083 0.021-0.125 0.021-0.053 0.006-0.108-0.002-0.157-0.023s-0.092-0.056-0.124-0.099c-0.056-0.092-0.084-0.199-0.079-0.307v-2.136c-0.004-0.118 0.021-0.236 0.073-0.342 0.031-0.048 0.075-0.087 0.127-0.111s0.11-0.034 0.166-0.027c0.052-0.002 0.103 0.009 0.149 0.031s0.087 0.056 0.118 0.098c0.067 0.088 0.102 0.196 0.099 0.307v0.198h0.593v-0.233c0.001-0.137-0.024-0.273-0.073-0.401-0.044-0.12-0.112-0.23-0.2-0.322z"></path>
<path d="M5.21 25.891c-0.191-0.161-0.432-0.25-0.681-0.252-0.122 0.001-0.243 0.022-0.357 0.064-0.116 0.042-0.224 0.105-0.316 0.187-0.099 0.089-0.178 0.199-0.232 0.321-0.060 0.14-0.090 0.291-0.087 0.444v2.197c-0.004 0.155 0.026 0.308 0.087 0.45 0.054 0.118 0.133 0.223 0.232 0.307 0.092 0.085 0.199 0.151 0.316 0.193 0.115 0.042 0.235 0.064 0.357 0.064s0.243-0.022 0.357-0.064c0.119-0.043 0.229-0.109 0.324-0.193 0.096-0.086 0.172-0.19 0.226-0.307 0.061-0.142 0.091-0.295 0.087-0.45v-2.197c0.003-0.152-0.027-0.304-0.087-0.444-0.053-0.121-0.13-0.23-0.226-0.321zM4.93 28.853c0.005 0.059-0.003 0.117-0.024 0.172s-0.053 0.105-0.095 0.145c-0.079 0.066-0.179 0.103-0.282 0.103s-0.203-0.036-0.282-0.103c-0.042-0.041-0.075-0.090-0.095-0.145s-0.029-0.114-0.024-0.172v-2.197c-0.005-0.059 0.003-0.117 0.024-0.172s0.053-0.105 0.095-0.145c0.079-0.066 0.179-0.103 0.282-0.103s0.203 0.036 0.282 0.103c0.042 0.041 0.075 0.090 0.095 0.145s0.029 0.114 0.024 0.172v2.197z"></path>
<path d="M9.882 29.834v-4.159h-0.576l-0.756 2.202h-0.011l-0.762-2.202h-0.57v4.159h0.594v-2.53h0.011l0.582 1.789h0.296l0.586-1.789h0.011v2.53h0.594z"></path>
<path d="M13.258 25.966c-0.092-0.103-0.207-0.181-0.336-0.227-0.139-0.045-0.285-0.067-0.431-0.064h-0.883v4.159h0.593v-1.624h0.305c0.185 0.008 0.369-0.031 0.535-0.114 0.135-0.075 0.247-0.185 0.325-0.318 0.069-0.111 0.115-0.234 0.136-0.362 0.023-0.157 0.034-0.315 0.032-0.473 0.006-0.2-0.014-0.399-0.058-0.594-0.040-0.144-0.115-0.275-0.218-0.382zM12.952 27.235c-0.003 0.075-0.021 0.149-0.055 0.216-0.034 0.064-0.087 0.115-0.153 0.146-0.088 0.039-0.184 0.057-0.28 0.052h-0.27v-1.414h0.305c0.092-0.005 0.184 0.013 0.267 0.052 0.061 0.035 0.11 0.089 0.139 0.154 0.032 0.073 0.050 0.152 0.052 0.232 0 0.088 0 0.18 0 0.276s0.006 0.197 0 0.286h-0.006z"></path>
<path d="M16.065 25.675h-0.486l-0.916 4.159h0.593l0.174-0.894h0.808l0.174 0.894h0.593l-0.939-4.159zM15.518 28.374l0.292-1.508h0.011l0.29 1.508h-0.593z"></path>
<path d="M19.894 28.18h-0.011l-0.895-2.506h-0.57v4.159h0.593v-2.501h0.012l0.906 2.501h0.557v-4.159h-0.593v2.506z"></path>
<path d="M23.516 25.675l-0.477 1.654h-0.012l-0.477-1.654h-0.628l0.814 2.401v1.758h0.593v-1.758l0.814-2.401h-0.628z"></path>
<path d="M0 31.008h0.286v0.801h0.194v-0.801h0.284v-0.164h-0.764v0.164z"></path>
<path d="M2.401 30.844l-0.374 0.966h0.206l0.079-0.22h0.385l0.082 0.22h0.211l-0.383-0.966h-0.206zM2.37 31.428l0.131-0.358 0.131 0.358h-0.263z"></path>
<path d="M4.775 31.454h0.223v0.124c-0.065 0.052-0.146 0.081-0.229 0.081-0.039 0.002-0.078-0.005-0.113-0.021s-0.067-0.040-0.091-0.071c-0.051-0.073-0.076-0.162-0.072-0.252 0-0.215 0.093-0.322 0.278-0.322 0.049-0.005 0.097 0.008 0.137 0.036s0.069 0.070 0.081 0.117l0.191-0.037c-0.041-0.189-0.177-0.284-0.409-0.284-0.124-0.003-0.245 0.041-0.338 0.124-0.049 0.048-0.086 0.106-0.11 0.17s-0.034 0.133-0.029 0.201c-0.006 0.132 0.039 0.262 0.124 0.362 0.047 0.049 0.105 0.087 0.168 0.111s0.131 0.035 0.199 0.030c0.151 0.004 0.298-0.051 0.409-0.153v-0.381h-0.418v0.163z"></path>
<path d="M7.199 30.844h-0.196v0.966h0.677v-0.164h-0.481v-0.801z"></path>
<path d="M9.248 30.844h-0.195v0.966h0.195v-0.966z"></path>
<path d="M11.252 31.489l-0.396-0.645h-0.189v0.966h0.182v-0.631l0.388 0.631h0.194v-0.966h-0.179v0.645z"></path>
<path d="M13.064 31.385h0.481v-0.164h-0.481v-0.212h0.518v-0.164h-0.713v0.966h0.733v-0.164h-0.538v-0.261z"></path>
<path d="M17.456 31.225h-0.38v-0.381h-0.194v0.966h0.194v-0.422h0.38v0.422h0.194v-0.966h-0.194v0.381z"></path>
<path d="M19.279 31.385h0.483v-0.164h-0.483v-0.212h0.519v-0.164h-0.713v0.966h0.732v-0.164h-0.538v-0.261z"></path>
<path d="M21.75 31.385c0.168-0.026 0.254-0.115 0.254-0.269 0.005-0.041-0.001-0.083-0.018-0.12s-0.043-0.070-0.077-0.094c-0.087-0.044-0.185-0.064-0.283-0.057h-0.409v0.966h0.194v-0.404h0.038c0.041-0.003 0.083 0.005 0.121 0.021 0.028 0.017 0.052 0.042 0.069 0.071l0.211 0.307h0.232l-0.118-0.189c-0.052-0.093-0.125-0.173-0.214-0.232zM21.554 31.251h-0.144v-0.243h0.153c0.067-0.005 0.134 0.002 0.197 0.023 0.014 0.012 0.025 0.028 0.033 0.045s0.011 0.036 0.010 0.055c-0.001 0.019-0.006 0.037-0.015 0.054s-0.021 0.031-0.037 0.042c-0.064 0.020-0.131 0.027-0.197 0.023z"></path>
<path d="M23.613 31.385h0.481v-0.164h-0.481v-0.212h0.519v-0.164h-0.715v0.966h0.733v-0.164h-0.538v-0.261z"></path>
</symbol>
<symbol id="icon-yaco" viewBox="0 0 27 32">
<path d="M4 0.475l4.672 4.423-8.672-0.005v21.458h22.667v-8.204l4.667 4.418v-22.089h-23.333zM22.462 17.628l-13.247-12.54h13.247v12.54zM18.349 23.212h-14.762v-14.432h1.043v13.454h13.719v0.977zM7.073 29.208l-0.545 1.123-0.545-1.123h-0.457l0.796 1.497v0.872h0.413v-0.872l0.794-1.497h-0.456zM7.758 31.578l0.192-0.552h0.918l0.194 0.552h0.43l-0.897-2.37h-0.369l-0.895 2.37h0.428zM8.409 29.711l0.343 0.983h-0.687l0.343-0.983zM10.58 30.637c-0.060 0.091-0.090 0.192-0.090 0.301 0 0.2 0.070 0.362 0.21 0.487 0.141 0.124 0.329 0.186 0.563 0.186s0.436-0.063 0.605-0.19l0.133 0.158h0.459l-0.348-0.412c0.137-0.187 0.205-0.426 0.205-0.718h-0.343c0 0.16-0.033 0.304-0.099 0.435l-0.457-0.54 0.161-0.117c0.114-0.082 0.196-0.165 0.246-0.247 0.050-0.084 0.075-0.175 0.075-0.273 0-0.15-0.055-0.275-0.166-0.376-0.11-0.102-0.251-0.153-0.423-0.153-0.191 0-0.343 0.054-0.456 0.163-0.113 0.107-0.169 0.254-0.169 0.439 0 0.076 0.018 0.155 0.054 0.236 0.037 0.081 0.101 0.18 0.194 0.296-0.176 0.126-0.294 0.235-0.353 0.327zM11.649 31.161c-0.116 0.089-0.241 0.133-0.374 0.133-0.118 0-0.213-0.034-0.283-0.103s-0.106-0.157-0.106-0.267c0-0.127 0.065-0.24 0.195-0.339l0.050-0.036 0.518 0.61zM11.225 30.111c-0.112-0.138-0.168-0.252-0.168-0.343 0-0.079 0.023-0.145 0.068-0.197s0.107-0.078 0.184-0.078c0.072 0 0.131 0.022 0.177 0.067 0.047 0.043 0.070 0.096 0.070 0.158 0 0.093-0.034 0.17-0.101 0.23l-0.050 0.041-0.181 0.124zM15.082 31.399c0.163-0.142 0.256-0.34 0.28-0.592h-0.41c-0.022 0.169-0.073 0.29-0.155 0.363s-0.203 0.109-0.365 0.109c-0.177 0-0.311-0.067-0.404-0.202-0.091-0.135-0.137-0.33-0.137-0.586v-0.21c0.002-0.253 0.051-0.444 0.146-0.575 0.097-0.131 0.234-0.197 0.413-0.197 0.154 0 0.271 0.038 0.35 0.114 0.080 0.075 0.13 0.197 0.15 0.368h0.41c-0.026-0.259-0.119-0.46-0.278-0.602s-0.37-0.213-0.632-0.213c-0.194 0-0.366 0.046-0.514 0.138-0.148 0.092-0.261 0.224-0.34 0.394s-0.119 0.367-0.119 0.591v0.221c0.003 0.218 0.044 0.41 0.122 0.575s0.189 0.292 0.332 0.383c0.144 0.089 0.311 0.133 0.5 0.133 0.27 0 0.487-0.071 0.649-0.212zM17.502 31.067c0.080-0.176 0.12-0.38 0.12-0.612v-0.132c-0.001-0.231-0.042-0.433-0.124-0.607-0.081-0.175-0.197-0.308-0.347-0.4-0.149-0.093-0.32-0.14-0.513-0.14s-0.365 0.047-0.514 0.142c-0.149 0.093-0.264 0.228-0.347 0.405-0.081 0.177-0.122 0.381-0.122 0.612v0.133c0.001 0.227 0.042 0.427 0.124 0.601 0.082 0.174 0.199 0.308 0.348 0.402 0.151 0.093 0.322 0.14 0.514 0.14 0.194 0 0.366-0.047 0.514-0.14 0.15-0.094 0.265-0.229 0.345-0.404zM17.061 29.727c0.1 0.14 0.15 0.341 0.15 0.604v0.124c0 0.267-0.049 0.47-0.148 0.609-0.098 0.139-0.238 0.208-0.42 0.208-0.18 0-0.321-0.071-0.423-0.213-0.101-0.142-0.151-0.343-0.151-0.604v-0.137c0.002-0.255 0.053-0.452 0.153-0.591 0.101-0.14 0.24-0.21 0.418-0.21 0.182 0 0.323 0.070 0.422 0.21z"></path>
</symbol>
<symbol id="icon-antenna-1" viewBox="0 0 32 32">
<path fill="#212121" style="fill: var(--color1, #212121)" d="M30.773 22.098l-8.443-8.505 0.937-4.615c0.242 0.094 0.499 0.144 0.758 0.146h0.006c1.192 0.014 2.17-0.941 2.184-2.133s-0.941-2.17-2.133-2.184c-1.192-0.014-2.17 0.941-2.184 2.133-0.003 0.255 0.039 0.509 0.125 0.749l-4.96 0.605-8.091-8.133c-0.099-0.101-0.235-0.159-0.377-0.16-0.14 0.001-0.274 0.056-0.373 0.155l-1.513 1.504c-0.208 0.208-0.208 0.546 0 0.754l0.814 0.826c-3.153 5.798-2.129 12.978 2.519 17.663 0.043 0.041 0.092 0.074 0.146 0.098-0.034 0.18-0.051 0.364-0.052 0.547v6.187h-6.4c-1.472 0.002-2.665 1.195-2.667 2.667v1.067c0 0.295 0.239 0.533 0.533 0.533h24.533c0.295 0 0.533-0.239 0.533-0.533v-1.067c-0.002-1.472-1.195-2.665-2.667-2.667h-6.4v-2.742c1.003 0.21 2.024 0.317 3.049 0.32 2.458-0.003 4.877-0.615 7.040-1.783l0.818 0.823c0.099 0.101 0.235 0.159 0.377 0.16 0.14-0.001 0.274-0.056 0.373-0.155l1.513-1.504c0.208-0.208 0.208-0.546 0-0.754zM23.28 6.233c0.418-0.415 1.093-0.414 1.508 0.004s0.414 1.093-0.004 1.508c-0.2 0.199-0.47 0.31-0.752 0.31h-0.003c-0.589-0.003-1.064-0.483-1.061-1.072 0.002-0.282 0.115-0.552 0.314-0.751h-0.002zM22.024 9.738l-0.598 2.946-1.175-1.182 1.774-1.763zM21.419 8.836l-1.92 1.909-1.485-1.493 3.405-0.415zM24.004 28.8c0.884 0 1.6 0.716 1.6 1.6v0.533h-23.467v-0.533c0-0.884 0.716-1.6 1.6-1.6h20.267zM16.537 26.667v1.067h-5.333v-1.067h5.333zM11.204 25.6v-4.053c0-1.294 1.196-2.347 2.667-2.347s2.667 1.053 2.667 2.347v4.053h-5.333zM17.604 23.904v-2.357c0-1.882-1.675-3.413-3.733-3.413-1.331-0.020-2.576 0.657-3.281 1.786-4.058-4.274-4.971-10.645-2.279-15.887l18.602 18.708c-2.872 1.461-6.165 1.873-9.309 1.163zM28.893 23.22l-21.057-21.181 0.755-0.752 7.935 7.98c0.004 0 0.006 0.007 0.010 0.010l13.115 13.191-0.757 0.752z"></path>
<path fill="#2196f3" style="fill: var(--color2, #2196f3)" d="M13.876 20.267h-0.005c-0.884-0.001-1.601 0.714-1.602 1.598s0.714 1.601 1.598 1.602h0.005c0.884 0.001 1.601-0.714 1.602-1.598s-0.714-1.601-1.598-1.602zM14.249 22.245c-0.1 0.1-0.236 0.156-0.378 0.155-0.295-0.002-0.532-0.242-0.531-0.536 0.001-0.141 0.057-0.276 0.157-0.375s0.233-0.154 0.373-0.155c0.295 0.002 0.532 0.241 0.53 0.536-0.001 0.141-0.057 0.276-0.157 0.375h0.005z"></path>
</symbol>
<symbol id="icon-astronaut-1" viewBox="0 0 32 32">
<path fill="#2196f3" style="fill: var(--color2, #2196f3)" d="M31.974 4.524c-0.063-0.193-0.229-0.333-0.43-0.363l-1.91-0.278-0.855-1.731c-0.179-0.365-0.777-0.365-0.956 0l-0.855 1.731-1.91 0.278c-0.201 0.029-0.367 0.17-0.431 0.363-0.062 0.193-0.011 0.405 0.135 0.547l1.383 1.348-0.326 1.903c-0.034 0.2 0.048 0.402 0.212 0.522 0.166 0.121 0.382 0.135 0.562 0.040l1.709-0.899 1.709 0.899c0.078 0.041 0.164 0.061 0.249 0.061 0.11 0 0.221-0.034 0.314-0.102 0.164-0.119 0.246-0.322 0.212-0.522l-0.326-1.903 1.383-1.348c0.145-0.142 0.197-0.354 0.135-0.547zM29.511 5.851c-0.125 0.122-0.183 0.299-0.153 0.472l0.191 1.114-1-0.526c-0.078-0.041-0.163-0.061-0.249-0.061s-0.17 0.020-0.249 0.061l-1.001 0.526 0.191-1.114c0.030-0.173-0.028-0.349-0.153-0.472l-0.81-0.789 1.119-0.163c0.174-0.025 0.324-0.134 0.402-0.292l0.5-1.013 0.5 1.013c0.078 0.157 0.228 0.267 0.402 0.292l1.119 0.163-0.809 0.789z"></path>
<path fill="#2196f3" style="fill: var(--color2, #2196f3)" d="M26.134 20.522h-1.067v1.067h1.067v-1.067z"></path>
<path fill="#2196f3" style="fill: var(--color2, #2196f3)" d="M26.134 22.656h-1.067v1.067h1.067v-1.067z"></path>
<path fill="#2196f3" style="fill: var(--color2, #2196f3)" d="M27.2 21.589h-1.067v1.067h1.067v-1.067z"></path>
<path fill="#2196f3" style="fill: var(--color2, #2196f3)" d="M25.067 21.589h-1.067v1.067h1.067v-1.067z"></path>
<path fill="#2196f3" style="fill: var(--color2, #2196f3)" d="M22.4 26.389h-1.067v1.067h1.067v-1.067z"></path>
<path fill="#2196f3" style="fill: var(--color2, #2196f3)" d="M22.4 28.522h-1.067v1.067h1.067v-1.067z"></path>
<path fill="#2196f3" style="fill: var(--color2, #2196f3)" d="M23.467 27.456h-1.067v1.067h1.067v-1.067z"></path>
<path fill="#2196f3" style="fill: var(--color2, #2196f3)" d="M21.333 27.456h-1.067v1.067h1.067v-1.067z"></path>
<path fill="#2196f3" style="fill: var(--color2, #2196f3)" d="M16 24.256h-1.067v1.067h1.067v-1.067z"></path>
<path fill="#2196f3" style="fill: var(--color2, #2196f3)" d="M16 26.389h-1.067v1.067h1.067v-1.067z"></path>
<path fill="#2196f3" style="fill: var(--color2, #2196f3)" d="M17.067 25.322h-1.067v1.067h1.067v-1.067z"></path>
<path fill="#2196f3" style="fill: var(--color2, #2196f3)" d="M14.933 25.322h-1.067v1.067h1.067v-1.067z"></path>
<path fill="#2196f3" style="fill: var(--color2, #2196f3)" d="M5.867 6.122h-1.067v1.067h1.067v-1.067z"></path>
<path fill="#2196f3" style="fill: var(--color2, #2196f3)" d="M5.867 8.255h-1.067v1.067h1.067v-1.067z"></path>
<path fill="#2196f3" style="fill: var(--color2, #2196f3)" d="M6.933 7.189h-1.067v1.067h1.067v-1.067z"></path>
<path fill="#2196f3" style="fill: var(--color2, #2196f3)" d="M4.8 7.189h-1.067v1.067h1.067v-1.067z"></path>
<path fill="#212121" style="fill: var(--color1, #212121)" d="M24.715 14.159c-0.287-0.388-0.709-0.637-1.188-0.705-0.481-0.068-0.956 0.058-1.34 0.352l-1.252 0.96-1.898 1.417-1.358-0.541c2.421-1.086 4.114-3.508 4.114-6.32 0-3.823-3.123-6.933-6.961-6.933s-6.961 3.11-6.961 6.933c0 1.386 0.414 2.674 1.12 3.758l-2.764-0.024c-0.002 0-0.003 0-0.005 0-0.009 0-0.015 0.004-0.023 0.005-0.053 0.002-0.105 0.013-0.155 0.031-0.013 0.005-0.026 0.008-0.038 0.013-0.006 0.003-0.013 0.003-0.019 0.006l-3.233 1.596c-0.001 0-0.001 0-0.001 0.001l-1.893 0.911c-0.021 0.009-0.042 0.021-0.063 0.035-0.755 0.502-1.012 1.489-0.598 2.295 0.22 0.429 0.595 0.745 1.056 0.889 0.178 0.055 0.359 0.083 0.539 0.083 0.29 0 0.577-0.071 0.839-0.211l1.388-0.738 2.264-1.169 1.357-0.008-5.442 5.416c-0.001 0.001-0.001 0.001-0.002 0.001l-1.339 1.333c-0.316 0.315-0.49 0.732-0.49 1.178s0.174 0.863 0.49 1.179c0.325 0.323 0.752 0.485 1.179 0.485s0.854-0.162 1.18-0.485l1.314-1.309 1.741-1.3 0.901 0.897-1.762 1.754c-0 0.001-0.001 0.001-0.002 0.001l-1.339 1.333c-0.316 0.315-0.49 0.732-0.49 1.178s0.174 0.863 0.49 1.179c0.325 0.323 0.753 0.485 1.18 0.485s0.855-0.162 1.18-0.485l3.482-3.467c0.001-0.001 0.001-0.001 0.001-0.002l1.010-1-0.004-0.004c0.006-0.006 0.015-0.009 0.022-0.015l5.166-5.658 3.471 0.494c0.025 0.004 0.050 0.005 0.075 0.005 0.065 0 0.127-0.015 0.187-0.038 0.018-0.006 0.033-0.015 0.050-0.023 0.019-0.010 0.039-0.015 0.058-0.027l3.213-2.133c0.012-0.008 0.018-0.021 0.029-0.029 0.013-0.010 0.029-0.014 0.041-0.026l1.271-1.191c0.662-0.62 0.753-1.635 0.212-2.362zM2.13 17.77c-0.173 0.093-0.37 0.111-0.558 0.052-0.187-0.058-0.338-0.186-0.427-0.358-0.161-0.314-0.068-0.695 0.214-0.902l1.314-0.632 0.449 1.313-0.992 0.527zM5.628 15.942l-1.548 0.8-0.439-1.283 2.027-1.001-0.040 1.484zM20.727 9.322c0 0.918-0.219 1.785-0.599 2.559l-4.181-1.899c-0.044-0.573-0.341-1.075-0.788-1.388l1.464-4.86c2.378 0.756 4.105 2.974 4.105 5.588zM8.938 9.322c0-3.235 2.644-5.867 5.894-5.867 0.253 0 0.5 0.021 0.745 0.052l-1.432 4.754c-0.019-0.001-0.037-0.006-0.057-0.006-1.033 0-1.873 0.837-1.873 1.867s0.84 1.867 1.873 1.867c0.694 0 1.294-0.383 1.618-0.945l3.862 1.755c-1.075 1.446-2.795 2.39-4.737 2.39-3.25 0-5.894-2.632-5.894-5.867zM14.894 10.122c0 0.441-0.362 0.8-0.806 0.8s-0.806-0.359-0.806-0.8c0-0.441 0.362-0.8 0.806-0.8s0.806 0.359 0.806 0.8zM2.465 25.146c-0.236 0.234-0.619 0.234-0.854 0.001-0.114-0.114-0.176-0.263-0.176-0.423s0.062-0.309 0.176-0.421l0.962-0.959 0.851 0.848-0.959 0.955zM5.679 28.88c-0.236 0.234-0.619 0.235-0.855 0.001-0.114-0.114-0.176-0.263-0.176-0.423s0.062-0.309 0.176-0.421l0.963-0.959 0.852 0.848-0.96 0.955zM9.16 25.411c-0.001 0-0.001 0-0.002 0.001l-1.765 1.76-0.852-0.848 1.763-1.755c0 0 0 0 0-0s0.001-0.001 0.002-0.001c0.040-0.040 0.065-0.088 0.090-0.135 0.007-0.014 0.020-0.026 0.026-0.040 0.017-0.041 0.019-0.085 0.026-0.129 0.003-0.025 0.014-0.047 0.014-0.073 0-0.036-0.013-0.070-0.020-0.106-0.006-0.032-0.006-0.065-0.019-0.095-0.020-0.050-0.055-0.094-0.091-0.138-0.010-0.012-0.014-0.027-0.025-0.038 0 0 0 0-0.001 0s-0.001-0.002-0.001-0.002l-1.607-1.6c-0.017-0.017-0.039-0.024-0.058-0.038-0.028-0.022-0.055-0.042-0.087-0.058-0.030-0.015-0.061-0.024-0.093-0.033-0.034-0.010-0.067-0.017-0.103-0.020-0.033-0.002-0.063 0.001-0.095 0.005-0.036 0.004-0.069 0.009-0.104 0.020-0.034 0.011-0.063 0.027-0.094 0.045-0.020 0.011-0.042 0.015-0.061 0.029l-1.773 1.324-0.901-0.897 2.399-2.386 4.361 4.289-0.928 0.919zM15.979 18.394c-0.015-0.002-0.030 0.004-0.045 0.003-0.039-0.002-0.076 0.001-0.115 0.007-0.030 0.005-0.059 0.011-0.088 0.021-0.034 0.012-0.065 0.028-0.097 0.047-0.030 0.018-0.057 0.037-0.083 0.061-0.013 0.011-0.028 0.017-0.040 0.029l-4.698 5.146-4.328-4.257 2.833-2.818c0.209-0.208 0.21-0.546 0.002-0.755-0.105-0.105-0.243-0.157-0.381-0.156v-0.001l-2.219 0.013 0.028-1.607 3.104 0.027c1.265 1.294 3.029 2.101 4.981 2.101 0.437 0 0.864-0.045 1.279-0.123 0.040 0.032 0.079 0.065 0.13 0.085l2.41 0.96 0.152 0.758 0.178 0.885-3.003-0.427zM20.020 18.572l-0.313-1.558 1.446-1.080 0.947 1.257-2.080 1.381zM23.774 15.741l-0.838 0.785-0.931-1.236 0.831-0.637c0.155-0.119 0.351-0.168 0.543-0.143 0.193 0.027 0.364 0.128 0.48 0.284 0.217 0.292 0.18 0.699-0.085 0.947z"></path>
<path fill="#212121" style="fill: var(--color1, #212121)" d="M13.602 18.544l-2.143-2.133c-0.207-0.207-0.545-0.207-0.753 0l-2.142 2.133c-0.1 0.101-0.157 0.236-0.157 0.378s0.056 0.278 0.157 0.378l2.142 2.133c0.104 0.103 0.241 0.155 0.377 0.155s0.273-0.052 0.376-0.155l2.143-2.133c0.1-0.1 0.157-0.236 0.157-0.378s-0.057-0.278-0.157-0.378zM11.083 20.303l-1.387-1.381 1.387-1.381 1.387 1.381-1.387 1.381z"></path>
<path fill="#212121" style="fill: var(--color1, #212121)" d="M17.164 5.071l-0.258 1.036c0.071 0.018 1.738 0.452 1.738 2.149h1.067c-0-2.017-1.666-2.965-2.547-3.185z"></path>
<path fill="#212121" style="fill: var(--color1, #212121)" d="M19.711 9.322h-1.067v1.067h1.067v-1.067z"></path>
</symbol>
<symbol id="icon-clock-1" viewBox="0 0 32 32">
<path fill="#212121" style="fill: var(--color1, #212121)" d="M31.297 15.301c-0.002-8.452-6.855-15.303-15.308-15.301s-15.303 6.855-15.301 15.308c0.001 6.658 4.307 12.551 10.649 14.576 0.061 0.019 0.124 0.029 0.187 0.029 0.121-0 0.239-0.032 0.342-0.094 0.135-0.080 0.236-0.207 0.283-0.356l3.865-12.25c1.057-0.005 1.909-0.866 1.903-1.923s-0.866-1.909-1.923-1.903c-0.284 0.001-0.565 0.067-0.82 0.191l-5.106-5.107c-0.253-0.245-0.657-0.238-0.902 0.016-0.239 0.247-0.239 0.639 0 0.886l5.103 5.109c-0.392 0.799-0.168 1.764 0.536 2.309l-3.683 11.673c-7.278-2.681-11.004-10.754-8.323-18.032s10.754-11.004 18.032-8.323 11.004 10.754 8.323 18.032c-1.31 3.556-4.001 6.431-7.462 7.973l-0.398-1.874c-0.073-0.344-0.411-0.565-0.756-0.492-0.109 0.023-0.209 0.074-0.292 0.148l-3.837 3.426c-0.263 0.234-0.287 0.637-0.052 0.9 0.076 0.085 0.174 0.149 0.283 0.184l4.899 1.563c0.335 0.108 0.694-0.077 0.802-0.412 0.034-0.106 0.040-0.219 0.017-0.328l-0.391-1.839c5.664-2.388 9.342-7.942 9.329-14.089zM15.992 14.664c0.352 0 0.638 0.286 0.638 0.638s-0.286 0.638-0.638 0.638c-0.352 0-0.638-0.285-0.638-0.638s0.285-0.638 0.638-0.638zM18.093 29.528l2.184-1.948 0.603 2.84-2.787-0.892z"></path>
<path fill="#2196f3" style="fill: var(--color2, #2196f3)" d="M15.354 3.185v1.275c0 0.352 0.285 0.638 0.638 0.638s0.638-0.285 0.638-0.638v-1.275c0-0.352-0.286-0.638-0.638-0.638s-0.638 0.286-0.638 0.638z"></path>
<path fill="#2196f3" style="fill: var(--color2, #2196f3)" d="M3.876 14.664c-0.352 0-0.638 0.286-0.638 0.638s0.285 0.638 0.638 0.638h1.275c0.352 0 0.638-0.285 0.638-0.638s-0.285-0.638-0.638-0.638h-1.275z"></path>
<path fill="#2196f3" style="fill: var(--color2, #2196f3)" d="M28.108 15.939c0.352 0 0.638-0.285 0.638-0.638s-0.285-0.638-0.638-0.638h-1.275c-0.352 0-0.638 0.286-0.638 0.638s0.286 0.638 0.638 0.638h1.275z"></path>
</symbol>
<symbol id="icon-diagram-1" viewBox="0 0 32 32">
<path fill="#2196f3" style="fill: var(--color2, #2196f3)" d="M14.926 14.965h1.066v4.798h-1.066v-4.797z"></path>
<path fill="#2196f3" style="fill: var(--color2, #2196f3)" d="M19.19 17.097h1.066v2.665h-1.066v-2.665z"></path>
<path fill="#2196f3" style="fill: var(--color2, #2196f3)" d="M10.661 18.696h1.066v1.066h-1.066v-1.066z"></path>
<path fill="#2196f3" style="fill: var(--color2, #2196f3)" d="M7.463 18.163h1.066v1.599h-1.066v-1.599z"></path>
<path fill="#212121" style="fill: var(--color1, #212121)" d="M1.599 28.291h25.587c0.883 0 1.599-0.716 1.599-1.599v-2.132c0-0.883-0.716-1.599-1.599-1.599h-0.533v-13.293l3.028-2.868c0.703 0.346 1.553 0.136 2.013-0.499s0.396-1.508-0.152-2.068-1.42-0.644-2.065-0.198c-0.644 0.446-0.873 1.292-0.542 2.002l-2.281 2.163v-1.23c0-0.883-0.716-1.599-1.599-1.599h-21.322c-0.883 0-1.599 0.716-1.599 1.599v15.992h-0.533c-0.883 0-1.599 0.716-1.599 1.599v2.132c0 0.883 0.716 1.599 1.599 1.599zM30.384 4.837c0.294 0 0.533 0.239 0.533 0.533s-0.239 0.533-0.533 0.533c-0.294 0-0.533-0.239-0.533-0.533s0.239-0.533 0.533-0.533zM3.198 6.969c0-0.294 0.239-0.533 0.533-0.533h21.322c0.294 0 0.533 0.239 0.533 0.533v2.239l-1.066 1.013v-2.186c0-0.294-0.239-0.533-0.533-0.533h-19.19c-0.294 0-0.533 0.239-0.533 0.533v13.326c0 0.294 0.239 0.533 0.533 0.533h19.19c0.294 0 0.533-0.239 0.533-0.533v-9.674l1.066-1.010v12.284h-22.388v-15.992zM7.996 13.899c-0.721-0.002-1.354 0.478-1.546 1.174s0.105 1.433 0.725 1.801c0.62 0.368 1.41 0.276 1.928-0.226l1.853 0.93c0.215 0.108 0.476 0.057 0.636-0.123l3.939-4.431 3.872 2.901c0.208 0.156 0.498 0.139 0.686-0.039l3.365-3.188v8.131h-18.124v-12.26h18.124v2.66l-3.771 3.572-3.904-2.927c-0.222-0.166-0.534-0.135-0.718 0.072l-3.993 4.493-1.493-0.746c0.011-0.064 0.018-0.129 0.020-0.193 0-0.883-0.716-1.599-1.599-1.599zM8.529 15.498c0 0.294-0.239 0.533-0.533 0.533s-0.533-0.239-0.533-0.533c0-0.294 0.239-0.533 0.533-0.533s0.533 0.239 0.533 0.533zM11.727 24.026h5.331v0.533c0 0.294-0.239 0.533-0.533 0.533h-4.264c-0.294 0-0.533-0.239-0.533-0.533v-0.533zM1.066 24.56c0-0.294 0.239-0.533 0.533-0.533h9.062v0.533c0 0.883 0.716 1.599 1.599 1.599h4.264c0.883 0 1.599-0.716 1.599-1.599v-0.533h9.062c0.294 0 0.533 0.239 0.533 0.533v2.132c0 0.294-0.239 0.533-0.533 0.533h-25.587c-0.294 0-0.533-0.239-0.533-0.533v-2.132z"></path>
</symbol>
<symbol id="icon-brand" viewBox="0 0 32 32">
<path d="M8.078 20.448c0.074 0.083 0.113 0.188 0.111 0.295 0.004 0.070-0.010 0.14-0.039 0.204s-0.075 0.122-0.132 0.168c-0.143 0.099-0.32 0.147-0.499 0.136h-0.877v-1.869h0.859c0.17-0.010 0.338 0.034 0.476 0.124 0.055 0.043 0.099 0.096 0.128 0.157s0.042 0.127 0.038 0.193c0.005 0.103-0.030 0.204-0.1 0.286-0.067 0.074-0.159 0.126-0.261 0.146 0.116 0.019 0.221 0.076 0.296 0.16zM7.049 20.166h0.367c0.083 0.006 0.166-0.016 0.233-0.062 0.028-0.023 0.049-0.051 0.063-0.083s0.019-0.066 0.016-0.1c0.003-0.034-0.003-0.068-0.016-0.099s-0.034-0.060-0.061-0.083c-0.069-0.047-0.154-0.069-0.24-0.063h-0.361v0.49zM7.686 20.883c0.029-0.023 0.053-0.053 0.068-0.086s0.022-0.069 0.019-0.104c0.002-0.036-0.005-0.072-0.020-0.105s-0.039-0.063-0.069-0.086c-0.072-0.049-0.16-0.073-0.249-0.068h-0.385v0.514h0.39c0.088 0.005 0.175-0.018 0.246-0.065z"></path>
<path d="M9.833 21.252l-0.478-0.73h-0.18v0.73h-0.411v-1.869h0.778c0.196-0.013 0.39 0.044 0.542 0.159 0.109 0.101 0.174 0.235 0.185 0.377s-0.034 0.282-0.127 0.396c-0.096 0.101-0.227 0.168-0.371 0.19l0.509 0.747h-0.447zM9.176 20.267h0.336c0.233 0 0.35-0.094 0.35-0.283 0.002-0.039-0.004-0.077-0.019-0.113s-0.038-0.069-0.067-0.097c-0.074-0.056-0.169-0.083-0.264-0.076h-0.34l0.004 0.569z"></path>
<path d="M12.079 20.876h-0.819l-0.145 0.376h-0.431l0.752-1.848h0.466l0.749 1.848h-0.431l-0.142-0.376zM11.969 20.593l-0.299-0.789-0.299 0.789h0.598z"></path>
<path d="M14.89 21.252h-0.408l-0.914-1.271v1.271h-0.407v-1.869h0.407l0.914 1.278v-1.278h0.408v1.869z"></path>
<path d="M17.217 20.805c-0.084 0.141-0.213 0.256-0.369 0.33-0.178 0.082-0.375 0.123-0.573 0.118h-0.726v-1.869h0.726c0.198-0.005 0.395 0.035 0.573 0.115 0.156 0.072 0.285 0.186 0.369 0.326 0.084 0.152 0.128 0.32 0.128 0.49s-0.044 0.338-0.128 0.49zM16.751 20.76c0.116-0.124 0.18-0.282 0.18-0.446s-0.064-0.322-0.18-0.446c-0.141-0.112-0.324-0.17-0.511-0.159h-0.283v1.21h0.283c0.186 0.011 0.37-0.046 0.511-0.159z"></path>
<path d="M12.334 8.986c0 0 5.264 1.82 5.153 4.453v4.454c0 0-5.261-1.821-5.151-4.454l-0.002-4.453z"></path>
<path d="M22.177 16.851c0.994-0.627 2.144-1.015 3.345-1.129v-1.394c-1.383 0.488-2.557 1.373-3.345 2.523z"></path>
<path d="M21.579 17.271c0.814-1.5 2.225-2.658 3.942-3.235v-4.018c0 0-7.497 2.592-7.339 6.342v6.341c0 0 0.334-0.116 0.86-0.333 0-0.203 0-0.407 0.024-0.613 0.155-1.741 1.059-3.354 2.513-4.485z"></path>
<path d="M20.866 19.627c0.039-0.44 0.127-0.875 0.262-1.298-0.905 0.977-1.454 2.189-1.568 3.465-0.011 0.121-0.017 0.241-0.020 0.365 0.426-0.187 0.921-0.421 1.442-0.696-0.133-0.604-0.172-1.222-0.117-1.836z"></path>
<path d="M21.165 19.649c-0.050 0.556-0.019 1.115 0.093 1.663 2.048-1.122 4.35-2.856 4.261-4.952v-0.183c-1.463 0.15-2.833 0.736-3.897 1.667-0.249 0.577-0.403 1.185-0.457 1.804z"></path>
</symbol>
<symbol id="icon-company" viewBox="0 0 32 32">
<path d="M10.901 21.719c0.005 0 0.010 0.001 0.014 0.003s0.008 0.004 0.011 0.007l0.065 0.062c-0.051 0.051-0.113 0.091-0.184 0.118-0.083 0.030-0.171 0.044-0.261 0.043-0.084 0.002-0.167-0.012-0.245-0.040-0.070-0.025-0.133-0.063-0.185-0.112-0.053-0.050-0.093-0.109-0.119-0.173-0.029-0.071-0.043-0.147-0.042-0.222-0.001-0.076 0.014-0.152 0.045-0.223 0.029-0.065 0.071-0.123 0.126-0.173s0.122-0.087 0.196-0.113c0.080-0.027 0.166-0.040 0.252-0.040 0.080-0.002 0.16 0.011 0.234 0.036 0.065 0.024 0.124 0.058 0.176 0.1l-0.054 0.067c-0.004 0.005-0.008 0.009-0.014 0.012-0.006 0.004-0.014 0.006-0.022 0.005s-0.017-0.003-0.024-0.007l-0.029-0.018-0.041-0.022c-0.017-0.008-0.036-0.016-0.054-0.022-0.024-0.007-0.049-0.013-0.074-0.018-0.032-0.005-0.065-0.007-0.097-0.007-0.062-0.001-0.123 0.010-0.181 0.030-0.054 0.019-0.102 0.047-0.142 0.084-0.041 0.039-0.072 0.084-0.092 0.134-0.023 0.057-0.034 0.116-0.034 0.176-0.001 0.061 0.010 0.121 0.034 0.179 0.020 0.049 0.051 0.094 0.090 0.133 0.038 0.036 0.084 0.064 0.135 0.083 0.053 0.019 0.111 0.029 0.168 0.028 0.033 0.001 0.067-0.002 0.099-0.006 0.054-0.006 0.106-0.022 0.151-0.048 0.023-0.013 0.044-0.027 0.065-0.044 0.008-0.007 0.020-0.011 0.031-0.011v0z"></path>
<path d="M12.787 21.406c0.001 0.075-0.014 0.15-0.044 0.221-0.026 0.064-0.069 0.122-0.123 0.171s-0.12 0.087-0.193 0.112c-0.16 0.053-0.336 0.053-0.496 0-0.072-0.026-0.138-0.064-0.192-0.113-0.054-0.050-0.097-0.109-0.124-0.173-0.059-0.143-0.059-0.299 0-0.442 0.028-0.065 0.070-0.123 0.124-0.174 0.054-0.047 0.12-0.084 0.192-0.108 0.159-0.054 0.337-0.054 0.496 0 0.072 0.026 0.138 0.064 0.193 0.113s0.095 0.107 0.123 0.171c0.030 0.071 0.045 0.147 0.044 0.222zM12.615 21.406c0.001-0.060-0.009-0.12-0.031-0.177-0.019-0.049-0.048-0.094-0.088-0.133-0.038-0.037-0.085-0.065-0.138-0.084-0.116-0.039-0.245-0.039-0.361 0-0.053 0.019-0.1 0.047-0.138 0.084-0.040 0.038-0.070 0.084-0.088 0.133-0.042 0.116-0.042 0.239 0 0.355 0.019 0.049 0.048 0.094 0.088 0.133 0.038 0.037 0.085 0.065 0.138 0.083 0.116 0.038 0.245 0.038 0.361 0 0.053-0.019 0.099-0.047 0.138-0.083 0.039-0.039 0.069-0.084 0.088-0.133 0.022-0.057 0.033-0.117 0.031-0.177v0z"></path>
<path d="M14.073 21.592l0.017 0.040c0.007-0.014 0.012-0.027 0.019-0.040s0.013-0.026 0.021-0.039l0.417-0.659c0.008-0.011 0.016-0.019 0.024-0.021 0.011-0.003 0.022-0.004 0.034-0.003h0.123v1.072h-0.146v-0.788c0-0.010 0-0.021 0-0.033s-0.001-0.025 0-0.037l-0.419 0.668c-0.005 0.010-0.014 0.019-0.025 0.024s-0.023 0.009-0.036 0.009h-0.024c-0.013 0-0.025-0.003-0.036-0.009s-0.019-0.015-0.025-0.025l-0.432-0.673c0 0.013 0 0.026 0 0.038s0 0.024 0 0.034v0.788h-0.141v-1.069h0.123c0.012-0.001 0.023 0.001 0.034 0.003 0.010 0.005 0.018 0.012 0.023 0.021l0.426 0.66c0.008 0.012 0.016 0.025 0.021 0.038v0z"></path>
<path d="M15.643 21.538v0.401h-0.163v-1.070h0.364c0.069-0.001 0.138 0.007 0.203 0.024 0.053 0.013 0.102 0.036 0.144 0.067 0.037 0.029 0.064 0.065 0.081 0.105 0.019 0.044 0.029 0.090 0.027 0.137 0.001 0.047-0.010 0.094-0.030 0.137-0.020 0.041-0.050 0.077-0.088 0.107-0.042 0.032-0.091 0.056-0.144 0.071-0.063 0.017-0.13 0.026-0.197 0.025l-0.198-0.003zM15.643 21.423h0.198c0.043 0.001 0.086-0.005 0.126-0.016 0.034-0.010 0.065-0.026 0.092-0.046 0.025-0.020 0.044-0.044 0.056-0.071 0.013-0.029 0.020-0.059 0.020-0.090 0.002-0.030-0.004-0.059-0.016-0.087s-0.032-0.053-0.057-0.073c-0.062-0.042-0.141-0.063-0.22-0.057h-0.198v0.441z"></path>
<path d="M17.837 21.941h-0.129c-0.013 0.001-0.026-0.003-0.036-0.010-0.009-0.007-0.016-0.015-0.021-0.025l-0.111-0.259h-0.557l-0.115 0.259c-0.005 0.010-0.011 0.018-0.020 0.024-0.010 0.007-0.024 0.011-0.037 0.011h-0.129l0.49-1.072h0.17l0.496 1.072zM17.029 21.543h0.46l-0.194-0.436c-0.015-0.033-0.027-0.066-0.037-0.101l-0.019 0.056c-0.006 0.017-0.012 0.033-0.018 0.045l-0.193 0.436z"></path>
<path d="M18.543 20.874c0.010 0.005 0.018 0.011 0.025 0.019l0.714 0.808c0-0.013 0-0.026 0-0.038s0-0.024 0-0.035v-0.759h0.146v1.072h-0.081c-0.012 0.001-0.023-0.002-0.034-0.006s-0.019-0.012-0.026-0.020l-0.714-0.807c0.001 0.012 0.001 0.025 0 0.037s0 0.022 0 0.033v0.764h-0.146v-1.072h0.086c0.010 0 0.020 0.002 0.029 0.005v0z"></path>
<path d="M20.63 21.515v0.426h-0.163v-0.426l-0.451-0.646h0.146c0.012-0.001 0.025 0.003 0.035 0.009 0.009 0.007 0.016 0.015 0.022 0.024l0.282 0.417c0.011 0.018 0.021 0.034 0.029 0.049s0.015 0.030 0.020 0.045l0.021-0.046c0.008-0.017 0.017-0.033 0.027-0.049l0.278-0.419c0.006-0.008 0.013-0.016 0.021-0.022 0.010-0.007 0.022-0.011 0.035-0.011h0.148l-0.453 0.648z"></path>
<path d="M13.992 19.071c0.071 0.008 0.143 0.014 0.216 0.020 1.101-0.428 2.033-1.129 2.679-2.014s0.977-1.917 0.952-2.965l-1.214-1.055c0.247 1.116 0.131 2.27-0.333 3.332s-1.261 1.991-2.298 2.683v0z"></path>
<path d="M13.558 19.022l0.033 0.006c1.109-0.689 1.954-1.652 2.427-2.763s0.551-2.32 0.224-3.47l-1.729-1.502c0.7 1.235 0.981 2.617 0.812 3.985s-0.782 2.667-1.767 3.745v0z"></path>
<path d="M19.422 15.349c-0.294 1.152-1.007 2.191-2.035 2.962-0.3 0.227-0.624 0.428-0.967 0.603 0.837-0.213 1.605-0.591 2.247-1.104s1.14-1.146 1.455-1.853l-0.701-0.609z"></path>
<path d="M19.147 15.18l-0.998-0.867c-0.019 0.989-0.342 1.955-0.937 2.799s-1.438 1.533-2.443 1.998h0.005c0.224 0 0.448-0.012 0.67-0.035 0.939-0.333 1.769-0.863 2.416-1.543s1.089-1.488 1.288-2.352v0z"></path>
<path d="M13.703 10.659l-1.191-1.036c-1.065 0.358-1.981 0.986-2.627 1.803s-0.995 1.785-0.998 2.777v0c0.004 1.096 0.428 2.159 1.206 3.022s1.865 1.475 3.088 1.741c1.092-1.157 1.732-2.585 1.826-4.079s-0.363-2.975-1.304-4.227v0z"></path>
<path d="M21.899 15.020c-0.005-1.3-0.601-2.546-1.659-3.466s-2.492-1.438-3.989-1.441v0c-0.692-0.001-1.377 0.11-2.022 0.327l7.293 6.336c0.25-0.56 0.378-1.155 0.377-1.756v0z"></path>
</symbol>
<symbol id="icon-company-rectangle" viewBox="0 0 32 32">
<path d="M16.128 15.218c-0.134-0.178-0.198-0.389-0.183-0.6v-0.87c0-0.267 0.061-0.47 0.182-0.608s0.329-0.208 0.624-0.207c0.277 0 0.473 0.059 0.59 0.177 0.127 0.151 0.188 0.335 0.174 0.521v0.205h-0.495v-0.207c0.002-0.068-0.003-0.136-0.014-0.203-0.007-0.046-0.032-0.088-0.071-0.12-0.051-0.035-0.115-0.051-0.179-0.047-0.068-0.004-0.135 0.013-0.189 0.050-0.043 0.036-0.072 0.082-0.082 0.133-0.014 0.071-0.021 0.143-0.019 0.215v1.056c-0.008 0.102 0.014 0.204 0.064 0.297 0.025 0.031 0.059 0.056 0.099 0.072s0.084 0.021 0.128 0.017c0.063 0.005 0.126-0.013 0.175-0.048 0.040-0.035 0.066-0.080 0.074-0.128 0.012-0.070 0.017-0.141 0.015-0.212v-0.214h0.495v0.196c0.014 0.194-0.046 0.386-0.171 0.547-0.114 0.129-0.308 0.194-0.593 0.194s-0.5-0.069-0.623-0.213z"></path>
<path d="M18.191 15.226c-0.125-0.136-0.188-0.333-0.188-0.594v-0.916c0-0.259 0.063-0.454 0.188-0.587s0.334-0.199 0.628-0.198c0.291 0 0.499 0.066 0.625 0.198s0.189 0.329 0.189 0.587v0.916c0 0.259-0.064 0.457-0.191 0.593s-0.334 0.205-0.623 0.205c-0.288 0-0.502-0.069-0.628-0.204zM19.049 15.007c0.045-0.085 0.065-0.178 0.059-0.271v-1.121c0.006-0.091-0.014-0.182-0.058-0.266-0.025-0.032-0.060-0.057-0.101-0.073s-0.086-0.021-0.131-0.016c-0.044-0.005-0.090 0-0.131 0.016s-0.076 0.041-0.102 0.073c-0.045 0.083-0.066 0.174-0.059 0.266v1.126c-0.006 0.093 0.014 0.186 0.059 0.271 0.029 0.029 0.064 0.051 0.104 0.067s0.083 0.024 0.127 0.024c0.044 0 0.087-0.008 0.127-0.024s0.076-0.039 0.104-0.067v-0.005z"></path>
<path d="M20.227 12.958h0.533l0.401 1.689 0.41-1.689h0.519l0.052 2.438h-0.384l-0.041-1.695-0.396 1.695h-0.308l-0.41-1.701-0.038 1.701h-0.388l0.048-2.438z"></path>
<path d="M22.741 12.958h0.831c0.479 0 0.718 0.231 0.718 0.692 0 0.442-0.252 0.663-0.756 0.662h-0.283v1.084h-0.513l0.003-2.438zM23.451 14c0.051 0.006 0.102 0.002 0.151-0.012s0.093-0.036 0.131-0.065c0.059-0.082 0.085-0.179 0.074-0.275 0.003-0.074-0.006-0.149-0.025-0.221-0.007-0.024-0.020-0.047-0.038-0.067s-0.040-0.037-0.065-0.049c-0.071-0.029-0.15-0.043-0.229-0.039h-0.199v0.729h0.199z"></path>
<path d="M25.029 12.958h0.551l0.565 2.438h-0.478l-0.112-0.562h-0.491l-0.115 0.562h-0.485l0.565-2.438zM25.5 14.552l-0.192-1.023-0.192 1.023h0.384z"></path>
<path d="M26.601 12.958h0.359l0.687 1.391v-1.391h0.426v2.438h-0.342l-0.691-1.452v1.452h-0.44l0.001-2.438z"></path>
<path d="M29.070 14.467l-0.571-1.505h0.481l0.349 0.967 0.327-0.967h0.471l-0.564 1.505v0.93h-0.492v-0.93z"></path>
<path d="M16.92 16.462v0.128h-0.418v0.991h-0.175v-0.991h-0.42v-0.128h1.014z"></path>
<path d="M18.232 17.581h-0.135c-0.014 0.001-0.027-0.003-0.038-0.011-0.010-0.006-0.018-0.015-0.023-0.026l-0.121-0.266h-0.58l-0.121 0.266c-0.003 0.011-0.010 0.021-0.018 0.030-0.011 0.007-0.024 0.011-0.038 0.011h-0.135l0.513-1.118h0.178l0.519 1.114zM17.383 17.166h0.484l-0.205-0.455c-0.015-0.034-0.028-0.070-0.038-0.105-0.007 0.021-0.013 0.042-0.019 0.059l-0.018 0.047-0.203 0.454z"></path>
<path d="M19.116 17.471c0.032 0.001 0.064 0.001 0.096 0 0.028-0.002 0.055-0.007 0.082-0.013 0.025-0.005 0.050-0.012 0.074-0.020 0.023-0.008 0.045-0.018 0.069-0.027v-0.252h-0.205c-0.005 0-0.010-0-0.015-0.002s-0.009-0.004-0.013-0.007c-0.003-0.003-0.006-0.006-0.008-0.009s-0.003-0.007-0.002-0.011v-0.086h0.398v0.429c-0.032 0.020-0.067 0.038-0.103 0.053s-0.075 0.028-0.114 0.038c-0.042 0.011-0.085 0.018-0.128 0.023-0.050 0.005-0.1 0.007-0.15 0.007-0.088 0.001-0.176-0.013-0.258-0.042-0.077-0.027-0.147-0.066-0.205-0.117-0.057-0.051-0.102-0.111-0.132-0.177-0.032-0.074-0.048-0.153-0.047-0.232-0.001-0.080 0.015-0.159 0.046-0.234 0.029-0.066 0.075-0.127 0.132-0.177s0.128-0.090 0.205-0.116c0.088-0.029 0.181-0.043 0.275-0.042 0.048-0 0.095 0.003 0.143 0.010 0.042 0.006 0.083 0.015 0.122 0.028 0.036 0.012 0.070 0.026 0.103 0.044s0.061 0.037 0.089 0.058l-0.049 0.069c-0.004 0.006-0.010 0.012-0.017 0.015s-0.015 0.006-0.023 0.006c-0.011-0-0.022-0.003-0.032-0.009-0.015-0.007-0.032-0.016-0.050-0.027-0.022-0.012-0.045-0.022-0.069-0.030-0.031-0.011-0.062-0.019-0.094-0.025-0.043-0.007-0.087-0.010-0.13-0.010-0.068-0.001-0.135 0.010-0.198 0.031-0.057 0.020-0.109 0.050-0.151 0.089-0.043 0.040-0.075 0.088-0.095 0.139-0.046 0.121-0.046 0.252 0 0.373 0.022 0.053 0.057 0.101 0.103 0.141 0.042 0.038 0.093 0.069 0.15 0.089 0.065 0.019 0.134 0.027 0.203 0.022z"></path>
<path d="M20.751 17.453h0.56v0.128h-0.731v-1.118h0.175l-0.004 0.991z"></path>
<path d="M21.893 17.581h-0.175v-1.118h0.175v1.118z"></path>
<path d="M22.545 16.468c0.010 0.005 0.020 0.012 0.027 0.020l0.75 0.843c-0.001-0.013-0.001-0.027 0-0.040 0-0.012 0-0.025 0-0.036v-0.797h0.153v1.123h-0.088c-0.013 0.001-0.026-0.001-0.038-0.006-0.011-0.006-0.020-0.013-0.028-0.021l-0.749-0.842c0 0.013 0 0.026 0 0.038s0 0.024 0 0.035v0.797h-0.147v-1.118h0.091c0.010 0 0.020 0.002 0.029 0.005z"></path>
<path d="M24.766 16.462v0.123h-0.622v0.369h0.504v0.119h-0.504v0.382h0.622v0.123h-0.802v-1.116h0.802z"></path>
<path d="M6.388 9.556l7.787 1.909v6.689l-7.787-1.908v-6.69zM5.889 8.986v7.585l8.785 2.154v-7.584l-8.785-2.155z"></path>
<path d="M10.597 22.247l-8.786-2.156v-7.584l8.786 2.155v7.585z"></path>
<path d="M6.035 9.47l7.686 1.885-3.268 2.823-7.687-1.886 3.27-2.822zM5.889 8.986l-4.078 3.52 8.786 2.155 4.077-3.52-8.785-2.155z"></path>
<path d="M11.092 21.82l3.582-3.094-3.582-0.879v3.973z"></path>
</symbol>
<symbol id="icon-envelope" viewBox="0 0 32 32">
<path d="M29 4h-26c-1.654 0-3 1.346-3 3v18c0 1.654 1.346 3 3 3h26c1.654 0 3-1.346 3-3v-18c0-1.654-1.346-3-3-3v0zM29 6c0.136 0 0.265 0.028 0.383 0.077l-13.383 11.599-13.383-11.599c0.118-0.049 0.247-0.077 0.383-0.077h26zM29 26h-26c-0.552 0-1-0.448-1-1v-16.81l13.345 11.565c0.188 0.163 0.422 0.244 0.655 0.244s0.467-0.081 0.655-0.244l13.345-11.565v16.81c0 0.552-0.448 1-1 1v0z"></path>
</symbol>
<symbol id="icon-facebook" viewBox="0 0 32 32">
<path d="M21.329 5.313h2.921v-5.088c-0.504-0.069-2.237-0.225-4.256-0.225-4.212 0-7.097 2.649-7.097 7.519v4.481h-4.648v5.688h4.648v14.312h5.699v-14.311h4.46l0.708-5.688h-5.169v-3.919c0.001-1.644 0.444-2.769 2.735-2.769z"></path>
</symbol>
<symbol id="icon-fosterpeters" viewBox="0 0 32 32">
<path d="M7.23 13.336h-0.001c-0.718 0-1.3 0.517-1.3 1.155v0.001c0 0.638 0.582 1.155 1.3 1.155h0.001c0.718 0 1.3-0.517 1.3-1.155v-0.001c0-0.638-0.582-1.155-1.3-1.155z"></path>
<path d="M16.826 12.967c-0.002-0.886-0.399-1.736-1.104-2.362s-1.661-0.98-2.658-0.982v0c-0.998 0.002-1.954 0.354-2.659 0.981s-1.103 1.476-1.105 2.363v4.888c0 0 7.526-0.745 7.526-4.886v-0.001z"></path>
<path d="M3.294 19.458c0.002 0.616 0.278 1.208 0.769 1.644s1.155 0.682 1.849 0.684c0.694-0.002 1.359-0.248 1.849-0.684s0.767-1.027 0.769-1.643v-3.4c0 0-5.236 0.519-5.236 3.4zM5.912 20.067c-0.136 0-0.268-0.036-0.381-0.103s-0.2-0.162-0.253-0.273c-0.052-0.111-0.066-0.234-0.039-0.352s0.091-0.227 0.188-0.312c0.096-0.085 0.218-0.143 0.351-0.167s0.271-0.011 0.396 0.035c0.125 0.046 0.232 0.124 0.308 0.225s0.116 0.218 0.116 0.339c0.001 0.080-0.017 0.159-0.052 0.234s-0.085 0.141-0.148 0.198c-0.064 0.057-0.139 0.102-0.223 0.133s-0.173 0.047-0.263 0.047v-0.002z"></path>
<path d="M11.203 19.732h-0.505v0.522h-0.263v-1.277h0.831v0.213h-0.568v0.33h0.505v0.212zM12.468 19.644c0 0.126-0.022 0.236-0.067 0.331s-0.108 0.168-0.191 0.22c-0.083 0.052-0.177 0.077-0.284 0.077s-0.2-0.025-0.284-0.076-0.147-0.123-0.193-0.217c-0.045-0.095-0.069-0.204-0.069-0.326v-0.063c0-0.126 0.022-0.236 0.067-0.332s0.109-0.17 0.192-0.22c0.083-0.052 0.178-0.077 0.284-0.077s0.201 0.026 0.284 0.077c0.083 0.051 0.147 0.124 0.192 0.22s0.069 0.205 0.069 0.331v0.057zM12.202 19.586c0-0.134-0.024-0.236-0.072-0.305s-0.116-0.104-0.205-0.104c-0.088 0-0.157 0.034-0.204 0.103s-0.072 0.169-0.073 0.302v0.062c0 0.13 0.024 0.231 0.072 0.304s0.117 0.108 0.207 0.108c0.088 0 0.156-0.034 0.204-0.103s0.071-0.171 0.072-0.304v-0.062zM13.322 19.919c0-0.050-0.017-0.088-0.053-0.114s-0.098-0.055-0.189-0.084c-0.091-0.030-0.163-0.059-0.217-0.088-0.145-0.079-0.217-0.184-0.217-0.317 0-0.069 0.019-0.13 0.058-0.184s0.095-0.097 0.167-0.127c0.073-0.030 0.155-0.045 0.246-0.045s0.172 0.017 0.244 0.050c0.071 0.033 0.127 0.079 0.166 0.139s0.059 0.129 0.059 0.205h-0.263c0-0.058-0.019-0.104-0.055-0.136s-0.089-0.049-0.155-0.049c-0.065 0-0.115 0.013-0.15 0.041s-0.053 0.062-0.053 0.107c0 0.042 0.021 0.076 0.062 0.104s0.104 0.054 0.185 0.079c0.15 0.045 0.259 0.101 0.327 0.167s0.103 0.15 0.103 0.249c0 0.111-0.042 0.198-0.125 0.261s-0.196 0.094-0.338 0.094c-0.098 0-0.188-0.018-0.268-0.053-0.081-0.037-0.143-0.086-0.185-0.148s-0.063-0.135-0.063-0.218h0.264c0 0.141 0.084 0.212 0.253 0.212 0.062 0 0.111-0.012 0.147-0.038s0.053-0.061 0.053-0.107zM14.726 19.19h-0.391v1.064h-0.263v-1.064h-0.386v-0.213h1.040v0.213zM15.646 19.7h-0.505v0.342h0.593v0.212h-0.856v-1.277h0.854v0.213h-0.591v0.304h0.505v0.206zM16.36 19.786h-0.209v0.468h-0.263v-1.277h0.474c0.151 0 0.267 0.034 0.349 0.101s0.123 0.162 0.123 0.285c0 0.087-0.019 0.16-0.057 0.218s-0.094 0.104-0.171 0.139l0.276 0.522v0.012h-0.282l-0.24-0.468zM16.151 19.573h0.212c0.066 0 0.117-0.017 0.153-0.050s0.054-0.080 0.054-0.139c0-0.060-0.017-0.108-0.052-0.142s-0.086-0.052-0.157-0.052h-0.212v0.383zM17.745 19.803v0.45h-0.263v-1.277h0.498c0.096 0 0.18 0.017 0.253 0.053s0.129 0.085 0.168 0.15c0.039 0.065 0.059 0.138 0.059 0.22 0 0.125-0.043 0.224-0.129 0.296s-0.204 0.108-0.355 0.108h-0.231zM17.745 19.591h0.235c0.070 0 0.122-0.016 0.159-0.049s0.055-0.080 0.055-0.14c0-0.062-0.019-0.113-0.055-0.152s-0.088-0.058-0.153-0.059h-0.241v0.401zM19.411 19.7h-0.505v0.342h0.593v0.212h-0.856v-1.277h0.854v0.213h-0.591v0.304h0.505v0.206zM20.632 19.19h-0.391v1.064h-0.263v-1.064h-0.386v-0.213h1.040v0.213zM21.551 19.7h-0.505v0.342h0.593v0.212h-0.856v-1.277h0.854v0.213h-0.591v0.304h0.505v0.206zM22.266 19.786h-0.209v0.468h-0.263v-1.277h0.474c0.151 0 0.267 0.034 0.349 0.101s0.123 0.162 0.123 0.285c0 0.087-0.019 0.16-0.057 0.218s-0.094 0.104-0.171 0.139l0.276 0.522v0.012h-0.282l-0.24-0.468zM22.056 19.573h0.212c0.066 0 0.117-0.017 0.153-0.050s0.054-0.080 0.054-0.139c0-0.060-0.017-0.108-0.052-0.142s-0.086-0.052-0.157-0.052h-0.212v0.383zM23.603 19.919c0-0.050-0.017-0.088-0.053-0.114s-0.098-0.055-0.189-0.084c-0.091-0.030-0.163-0.059-0.217-0.088-0.145-0.079-0.218-0.184-0.218-0.317 0-0.069 0.019-0.13 0.058-0.184s0.095-0.097 0.167-0.127c0.073-0.030 0.155-0.045 0.246-0.045s0.172 0.017 0.244 0.050c0.071 0.033 0.127 0.079 0.166 0.139 0.040 0.060 0.059 0.129 0.059 0.205h-0.263c0-0.058-0.019-0.104-0.055-0.136s-0.089-0.049-0.155-0.049c-0.065 0-0.115 0.013-0.15 0.041s-0.053 0.062-0.053 0.107c0 0.042 0.021 0.076 0.062 0.104s0.104 0.054 0.185 0.079c0.15 0.045 0.259 0.101 0.327 0.167s0.103 0.15 0.103 0.249c0 0.111-0.042 0.198-0.125 0.261s-0.196 0.094-0.338 0.094c-0.098 0-0.188-0.018-0.268-0.053-0.081-0.037-0.143-0.086-0.185-0.148s-0.063-0.135-0.063-0.218h0.264c0 0.141 0.084 0.212 0.253 0.212 0.062 0 0.111-0.012 0.147-0.038s0.053-0.061 0.053-0.107z"></path>
</symbol>
<symbol id="icon-instagram" viewBox="0 0 32 32">
<path d="M31.969 9.408c-0.075-1.7-0.35-2.869-0.744-3.882-0.406-1.075-1.032-2.038-1.851-2.838-0.8-0.813-1.769-1.444-2.832-1.844-1.019-0.394-2.182-0.669-3.882-0.744-1.713-0.081-2.257-0.1-6.601-0.1s-4.888 0.019-6.595 0.094c-1.7 0.075-2.869 0.35-3.882 0.744-1.075 0.406-2.038 1.031-2.838 1.85-0.813 0.8-1.444 1.769-1.844 2.832-0.394 1.019-0.669 2.182-0.744 3.882-0.081 1.713-0.1 2.257-0.1 6.601s0.019 4.888 0.094 6.595c0.075 1.7 0.35 2.869 0.744 3.882 0.406 1.075 1.038 2.038 1.85 2.838 0.8 0.813 1.769 1.444 2.832 1.844 1.019 0.394 2.182 0.669 3.882 0.744 1.706 0.075 2.25 0.094 6.595 0.094s4.888-0.019 6.595-0.094c1.7-0.075 2.869-0.35 3.882-0.744 2.151-0.832 3.851-2.532 4.682-4.682 0.394-1.019 0.669-2.182 0.744-3.882 0.075-1.707 0.094-2.251 0.094-6.595s-0.006-4.888-0.081-6.595zM29.087 22.473c-0.069 1.563-0.331 2.407-0.55 2.969-0.538 1.394-1.644 2.5-3.038 3.038-0.563 0.219-1.413 0.481-2.969 0.55-1.688 0.075-2.194 0.094-6.464 0.094s-4.782-0.019-6.464-0.094c-1.563-0.069-2.407-0.331-2.969-0.55-0.694-0.256-1.325-0.663-1.838-1.194-0.531-0.519-0.938-1.144-1.194-1.838-0.219-0.563-0.481-1.413-0.55-2.969-0.075-1.688-0.094-2.194-0.094-6.464s0.019-4.782 0.094-6.464c0.069-1.563 0.331-2.407 0.55-2.969 0.256-0.694 0.663-1.325 1.2-1.838 0.519-0.531 1.144-0.938 1.838-1.194 0.563-0.219 1.413-0.481 2.969-0.55 1.688-0.075 2.194-0.094 6.464-0.094 4.276 0 4.782 0.019 6.464 0.094 1.563 0.069 2.407 0.331 2.969 0.55 0.694 0.256 1.325 0.662 1.838 1.194 0.531 0.519 0.938 1.144 1.194 1.838 0.219 0.563 0.481 1.413 0.55 2.969 0.075 1.688 0.094 2.194 0.094 6.464s-0.019 4.77-0.094 6.458z"></path>
<path d="M16.059 7.783c-4.538 0-8.22 3.682-8.22 8.22s3.682 8.22 8.22 8.22c4.539 0 8.22-3.682 8.22-8.22s-3.682-8.22-8.22-8.22zM16.059 21.335c-2.944 0-5.332-2.388-5.332-5.332s2.388-5.332 5.332-5.332c2.944 0 5.332 2.388 5.332 5.332s-2.388 5.332-5.332 5.332z"></path>
<path d="M26.524 7.458c0 1.060-0.859 1.919-1.919 1.919s-1.919-0.859-1.919-1.919c0-1.060 0.859-1.919 1.919-1.919s1.919 0.859 1.919 1.919z"></path>
</symbol>
<symbol id="icon-linkedin" viewBox="0 0 32 32">
<path d="M31.992 32v-0.001h0.008v-11.736c0-5.741-1.236-10.164-7.948-10.164-3.227 0-5.392 1.771-6.276 3.449h-0.093v-2.913h-6.364v21.364h6.627v-10.579c0-2.785 0.528-5.479 3.977-5.479 3.399 0 3.449 3.179 3.449 5.657v10.401h6.62z"></path>
<path d="M0.528 10.636h6.635v21.364h-6.635v-21.364z"></path>
<path d="M3.843 0c-2.121 0-3.843 1.721-3.843 3.843s1.721 3.879 3.843 3.879c2.121 0 3.843-1.757 3.843-3.879-0.001-2.121-1.723-3.843-3.843-3.843v0z"></path>
</symbol>
<symbol id="icon-smartphone" viewBox="0 0 32 32">
<path d="M23 0h-14c-1.654 0-3 1.346-3 3v26c0 1.654 1.346 3 3 3h14c1.654 0 3-1.346 3-3v-26c0-1.654-1.346-3-3-3zM9 2h14c0.552 0 1 0.448 1 1v21h-16v-21c0-0.552 0.448-1 1-1zM23 30h-14c-0.552 0-1-0.448-1-1v-3h16v3c0 0.552-0.448 1-1 1z"></path>
<path d="M10.707 27.478c0.391 0.365 0.391 0.956 0 1.321s-1.024 0.365-1.414 0c-0.391-0.365-0.391-0.956 0-1.321s1.024-0.365 1.414 0z"></path>
</symbol>
<symbol id="icon-twitter" viewBox="0 0 32 32">
<path d="M32 6.078c-1.19 0.522-2.458 0.868-3.78 1.036 1.36-0.812 2.398-2.088 2.886-3.626-1.268 0.756-2.668 1.29-4.16 1.588-1.204-1.282-2.92-2.076-4.792-2.076-3.632 0-6.556 2.948-6.556 6.562 0 0.52 0.044 1.020 0.152 1.496-5.454-0.266-10.28-2.88-13.522-6.862-0.566 0.982-0.898 2.106-0.898 3.316 0 2.272 1.17 4.286 2.914 5.452-1.054-0.020-2.088-0.326-2.964-0.808 0 0.020 0 0.046 0 0.072 0 3.188 2.274 5.836 5.256 6.446-0.534 0.146-1.116 0.216-1.72 0.216-0.42 0-0.844-0.024-1.242-0.112 0.85 2.598 3.262 4.508 6.13 4.57-2.232 1.746-5.066 2.798-8.134 2.798-0.538 0-1.054-0.024-1.57-0.090 2.906 1.874 6.35 2.944 10.064 2.944 12.072 0 18.672-10 18.672-18.668 0-0.29-0.010-0.57-0.024-0.848 1.302-0.924 2.396-2.078 3.288-3.406z"></path>
</symbol>
</defs>
</svg>
